<svg xmlns="http://www.w3.org/2000/svg" xmlns:xlink="http://www.w3.org/1999/xlink" xmlns:lucid="lucid" width="1502" height="2481"><g transform="translate(-339 0)" lucid:page-tab-id="0_0"><path d="M0 0h2000v2500H0z" fill="#fff"/><path d="M600 86a6 6 0 0 1 6-6h1008a6 6 0 0 1 6 6v1048a6 6 0 0 1-6 6H606a6 6 0 0 1-6-6z" fill="#fff"/><path d="M618 80h8m8 0h8m8 0h8m8 0h8m8 0h8m8 0h8m8 0h8m8 0h8m8 0h8m8 0h8m8 0h8m8 0h8m8 0h8m8 0h8m8 0h8m8 0h8m8 0h8m8 0h8m8 0h8m8 0h8m8 0h8m8 0h8m8 0h8m8 0h8m8 0h8m8 0h8m8 0h8m8 0h8m8 0h8m8 0h8m8 0h8m8 0h8m8 0h8m8 0h8m8 0h8m8 0h8m8 0h8m8 0h8m8 0h8m8 0h8m8 0h8m8 0h8m8 0h8m8 0h8m8 0h8m8 0h8m8 0h8m8 0h8m8 0h8m8 0h8m8 0h8m8 0h8m8 0h8m8 0h8m8 0h8m8 0h8m8 0h8m8 0h8m8 0h8m8 0h8m8 0h8m8 0h8m8 0h4l.94.07.9.22.88.35.8.5.72.6.6.72.5.8.37.88.23.9.07.95v3.97m0 7.94v7.95m0 7.94v7.93m0 7.94v7.94m0 7.94v7.95m0 7.92v7.94m0 7.94v7.94m0 7.94v7.94m0 7.94V217m0 7.94v7.94m0 7.94v7.94m0 7.94v7.94m0 7.94v7.94m0 7.94v7.93m0 7.93v7.94m0 7.94v7.95m0 7.94v7.93m0 7.94v7.94m0 7.95v7.94m0 7.93v7.94m0 7.94v7.94m0 7.94v7.94m0 7.94v7.94m0 7.94v7.94m0 7.94v7.94m0 7.94v7.94m0 7.94v7.94m0 7.94v7.94m0 7.94v7.94m0 7.93v7.96m0 7.93v7.93m0 7.94v7.94m0 7.95v7.94m0 7.93v7.94m0 7.94v7.95m0 7.94v7.93m0 7.94v7.94m0 7.94v7.95m0 7.92v7.94m0 7.94v7.94m0 7.94v7.94m0 7.94V741m0 7.94v7.94m0 7.94v7.94m0 7.94v7.94m0 7.94v7.93m0 7.96v7.93m0 7.93v7.94m0 7.94v7.95m0 7.94v7.93m0 7.94v7.94m0 7.95v7.94m0 7.93v7.94m0 7.94v7.94m0 7.95v7.92m0 7.94v7.94m0 7.94v7.94m0 7.94v7.94m0 7.94v7.94m0 7.94v7.94m0 7.94v7.94m0 7.94v7.94m0 7.94v7.93m0 7.94v7.93m0 7.94v7.94m0 7.95v7.94m0 7.93v3.97l-.07.94-.22.9-.35.88-.5.8-.6.72-.72.6-.8.5-.88.37-.9.23-.95.07h-4m-8 0h-8m-8 0h-8m-8 0h-8m-8 0h-8m-8 0h-8m-8 0h-8m-8 0h-8m-8 0h-8m-8 0h-8m-8 0h-8m-8 0h-8m-8 0h-8m-8 0h-8m-8 0h-8m-8 0h-8m-8 0h-8m-8 0h-8m-8 0h-8m-8 0h-8m-8 0h-8m-8 0h-8m-8 0h-8m-8 0h-8m-8 0h-8m-8 0h-8m-8 0h-8m-8 0h-8m-8 0h-8m-8 0h-8m-8 0h-8m-8 0h-8m-8 0h-8m-8 0h-8m-8 0h-8m-8 0h-8m-8 0h-8m-8 0h-8m-8 0h-8m-8 0h-8m-8 0h-8m-8 0h-8m-8 0h-8m-8 0h-8m-8 0h-8m-8 0h-8m-8 0h-8m-8 0h-8m-8 0h-8m-8 0h-8m-8 0h-8m-8 0h-8m-8 0h-8m-8 0h-8m-8 0h-8m-8 0h-8m-8 0h-8m-8 0h-8m-8 0h-8m-8 0h-8m-8 0h-8m-8 0h-8m-8 0h-8m-8 0h-4l-.94-.07-.9-.22-.88-.35-.8-.5-.72-.6-.6-.72-.5-.8-.37-.88-.23-.9-.07-.95v-3.97m0-7.94v-7.95m0-7.94v-7.93m0-7.94v-7.94m0-7.95v-7.93m0-7.94v-7.94m0-7.94v-7.94m0-7.94v-7.94m0-7.94V1003m0-7.94v-7.94m0-7.94v-7.94m0-7.94v-7.94m0-7.94v-7.93m0-7.96v-7.93m0-7.93v-7.94m0-7.94v-7.95m0-7.94v-7.93m0-7.94v-7.94m0-7.95v-7.94m0-7.93v-7.94m0-7.94v-7.94m0-7.95v-7.92m0-7.94v-7.94m0-7.94v-7.94m0-7.94v-7.94m0-7.94v-7.94m0-7.94v-7.94m0-7.94v-7.94m0-7.94v-7.94m0-7.93v-7.96m0-7.93v-7.93m0-7.94v-7.94m0-7.95v-7.94m0-7.93v-7.94m0-7.94v-7.95m0-7.94v-7.93m0-7.94v-7.94m0-7.94v-7.95m0-7.92v-7.94m0-7.94v-7.94m0-7.94v-7.94m0-7.94V479m0-7.94v-7.94m0-7.94v-7.94m0-7.94v-7.94m0-7.94v-7.94m0-7.94v-7.93m0-7.93v-7.94m0-7.94v-7.95m0-7.94v-7.93m0-7.94v-7.94m0-7.95v-7.94m0-7.93v-7.94m0-7.94v-7.94m0-7.94v-7.94m0-7.94v-7.94m0-7.94v-7.94m0-7.94v-7.94m0-7.94v-7.94m0-7.94v-7.94m0-7.94v-7.94m0-7.94v-7.94m0-7.93v-7.96m0-7.93v-7.93m0-7.94v-7.94m0-7.95V97.9m0-7.93V86l.07-.94.22-.9.35-.88.5-.8.6-.72.72-.6.8-.5.88-.37.9-.23.95-.07h4" stroke="#3a414a" stroke-width="2" fill="none"/><path d="M600 26a6 6 0 0 1 6-6h228a6 6 0 0 1 6 6v48a6 6 0 0 1-6 6H606a6 6 0 0 1-6-6z" fill="none"/><use xlink:href="#a" transform="matrix(1,0,0,1,600,20) translate(0 34.44444444444444)"/><use xlink:href="#b" transform="matrix(1,0,0,1,600,20) translate(52.96296296296296 34.44444444444444)"/><use xlink:href="#c" transform="matrix(1,0,0,1,600,20) translate(99.81481481481481 34.44444444444444)"/><path d="M660 366a6 6 0 0 1 6-6h868a6 6 0 0 1 6 6v468a6 6 0 0 1-6 6H666a6 6 0 0 1-6-6z" stroke="#3a414a" stroke-width="2" fill="#fff0fb"/><use xlink:href="#d" transform="matrix(1,0,0,1,672,372) translate(36.01 231.52777777777777)"/><use xlink:href="#e" transform="matrix(1,0,0,1,672,372) translate(187.42975308641974 231.52777777777777)"/><use xlink:href="#f" transform="matrix(1,0,0,1,672,372) translate(270.08407407407407 231.52777777777777)"/><use xlink:href="#g" transform="matrix(1,0,0,1,672,372) translate(303.4174074074074 231.52777777777777)"/><path d="M660 906a6 6 0 0 1 6-6h168a6 6 0 0 1 6 6v168a6 6 0 0 1-6 6H666a6 6 0 0 1-6-6z" stroke="#3a414a" stroke-width="2" fill="#fff7a1"/><use xlink:href="#h" transform="matrix(1,0,0,1,672,912) translate(28.061728395061728 81.15277777777777)"/><use xlink:href="#i" transform="matrix(1,0,0,1,672,912) translate(71.27160493827161 81.15277777777777)"/><path d="M660 126a6 6 0 0 1 6-6h168a6 6 0 0 1 6 6v168a6 6 0 0 1-6 6H666a6 6 0 0 1-6-6z" stroke="#3a414a" stroke-width="2" fill="#dedeff"/><use xlink:href="#j" transform="matrix(1,0,0,1,672,132) translate(46.580246913580254 71.40277777777777)"/><use xlink:href="#k" transform="matrix(1,0,0,1,672,132) translate(31.117283950617278 98.06944444444446)"/><path d="M880 126a6 6 0 0 1 6-6h168a6 6 0 0 1 6 6v168a6 6 0 0 1-6 6H886a6 6 0 0 1-6-6z" stroke="#3a414a" stroke-width="2" fill="#dedeff"/><use xlink:href="#l" transform="matrix(1,0,0,1,892,132) translate(57.69135802469136 81.15277777777777)"/><path d="M1100 126a6 6 0 0 1 6-6h168a6 6 0 0 1 6 6v168a6 6 0 0 1-6 6h-168a6 6 0 0 1-6-6z" stroke="#3a414a" stroke-width="2" fill="#dedeff"/><use xlink:href="#m" transform="matrix(1,0,0,1,1112,132) translate(45.99382716049383 81.15277777777777)"/><path d="M880 906a6 6 0 0 1 6-6h168a6 6 0 0 1 6 6v168a6 6 0 0 1-6 6H886a6 6 0 0 1-6-6z" stroke="#3a414a" stroke-width="2" fill="#fff7a1"/><use xlink:href="#n" transform="matrix(1,0,0,1,892,912) translate(20.71604938271605 81.15277777777777)"/><use xlink:href="#i" transform="matrix(1,0,0,1,892,912) translate(78.61728395061729 81.15277777777777)"/><path d="M1080 386a6 6 0 0 1 6-6h428a6 6 0 0 1 6 6v428a6 6 0 0 1-6 6h-428a6 6 0 0 1-6-6z" stroke="#3a414a" stroke-width="2" fill="#e3fae3"/><use xlink:href="#o" transform="matrix(1,0,0,1,1092,392) translate(105.65432098765433 17.77777777777778)"/><use xlink:href="#p" transform="matrix(1,0,0,1,1092,392) translate(218.12345679012344 17.77777777777778)"/><path d="M1100 446a6 6 0 0 1 6-6h388a6 6 0 0 1 6 6v128a6 6 0 0 1-6 6h-388a6 6 0 0 1-6-6z" stroke="#3a414a" stroke-width="2" fill="#cfe4ff"/><use xlink:href="#q" transform="matrix(1,0,0,1,1112,452) translate(99.35802469135803 61.27777777777778)"/><use xlink:href="#r" transform="matrix(1,0,0,1,1112,452) translate(206.51851851851853 61.27777777777778)"/><path d="M1100 626a6 6 0 0 1 6-6h388a6 6 0 0 1 6 6v148a6 6 0 0 1-6 6h-388a6 6 0 0 1-6-6z" stroke="#3a414a" stroke-width="2" fill="#cfe4ff"/><use xlink:href="#s" transform="matrix(1,0,0,1,1112,632) translate(129.01851851851853 73.02777777777777)"/><use xlink:href="#t" transform="matrix(1,0,0,1,1112,632) translate(179.08024691358025 73.02777777777777)"/><path d="M750 301.5v41.12" stroke="#3a414a" fill="none"/><path d="M750.48 301.5h-.96v-.5h.96z" stroke="#3a414a" stroke-width=".05" fill="#3a414a"/><path d="M750 357.38l-4.63-14.26h9.26z" stroke="#3a414a" fill="#3a414a"/><use xlink:href="#u" transform="matrix(1,0,0,1,758,319.33335349462374) translate(0 14.222222222222223)"/><path d="M970 301.5v41.12" stroke="#3a414a" fill="none"/><path d="M970.48 301.5h-.96v-.5h.96z" stroke="#3a414a" stroke-width=".05" fill="#3a414a"/><path d="M970 357.38l-4.63-14.26h9.26z" stroke="#3a414a" fill="#3a414a"/><use xlink:href="#v" transform="matrix(1,0,0,1,978.0000000000001,319.33334082181267) translate(0 14.222222222222223)"/><path d="M1190 301.5v41.12" stroke="#3a414a" fill="none"/><path d="M1190.47 301.5h-.94v-.5h.94z" stroke="#3a414a" stroke-width=".05" fill="#3a414a"/><path d="M1190 357.38l-4.63-14.26h9.27z" stroke="#3a414a" fill="#3a414a"/><use xlink:href="#w" transform="matrix(1,0,0,1,1198,319.3333281490016) translate(0 14.222222222222223)"/><path d="M750 841.5v41.12" stroke="#3a414a" fill="none"/><path d="M750.48 841.5h-.96v-.5h.96z" stroke="#3a414a" stroke-width=".05" fill="#3a414a"/><path d="M750 897.38l-4.63-14.26h9.26z" stroke="#3a414a" fill="#3a414a"/><use xlink:href="#x" transform="matrix(1,0,0,1,758,854.8042857788373) translate(0 14.222222222222223)"/><path d="M970 841.5v41.12" stroke="#3a414a" fill="none"/><path d="M970.48 841.5h-.96v-.5h.96z" stroke="#3a414a" stroke-width=".05" fill="#3a414a"/><path d="M970 897.38l-4.63-14.26h9.26z" stroke="#3a414a" fill="#3a414a"/><use xlink:href="#x" transform="matrix(1,0,0,1,978,855.9871348349385) translate(0 14.222222222222223)"/><path d="M360 1406a6 6 0 0 1 6-6h1448a6 6 0 0 1 6 6v1048a6 6 0 0 1-6 6H366a6 6 0 0 1-6-6z" fill="#fff"/><path d="M377.93 1400h7.96m7.95 0h7.95m7.96 0h7.95m7.97 0h7.96m7.95 0h7.96m7.95 0h7.95m7.96 0h7.96m7.96 0h7.95m7.96 0h7.96m7.94 0h7.96m7.95 0H545m7.97 0h7.95m7.96 0h7.96m7.95 0h7.95m7.95 0h7.96m7.96 0h7.95m7.96 0h7.95m7.96 0h7.96m7.95 0h7.96m7.96 0h7.96m7.96 0h7.95m7.96 0h7.94m7.96 0h7.96m7.95 0h7.97m7.95 0h7.96m7.96 0h7.95m7.95 0h7.95m7.96 0h7.96m7.95 0h7.96m7.96 0h7.94m7.96 0h7.95m7.96 0h7.96m7.96 0h7.96m7.95 0H911m7.95 0h7.95m7.96 0h7.95m7.97 0h7.96m7.95 0h7.96m7.95 0h7.95m7.96 0h7.96m7.96 0h7.95m7.96 0h7.96m7.94 0h7.96m7.95 0h7.96m7.97 0h7.95m7.96 0h7.95m7.96 0h7.95m7.95 0h7.96m7.95 0h7.97m7.96 0h7.95m7.96 0h7.95m7.95 0h7.96m7.96 0h7.96m7.96 0h7.95m7.96 0h7.94m7.96 0h7.96m7.95 0h7.97m7.95 0h7.96m7.95 0h7.96m7.95 0h7.95m7.96 0h7.95m7.97 0h7.96m7.95 0h7.96m7.96 0h7.95m7.96 0h7.96m7.96 0h7.96m7.95 0h7.96m7.94 0h7.96m7.96 0h7.95m7.97 0h7.95m7.96 0h7.96m7.95 0h7.95m7.95 0h7.96m7.96 0h7.95m7.96 0h7.95m7.96 0h7.96m7.95 0h7.96m7.96 0h7.96m7.96 0h7.95m7.96 0h7.94m7.96 0h7.96m7.95 0h7.97m7.95 0h7.96m7.96 0h7.95m7.95 0h7.96m7.96 0h7.96m7.95 0h7.96m7.96 0h7.94m7.96 0h7.95m7.96 0h7.97m7.95 0h3.98l.94.07.9.22.88.35.8.5.72.6.6.72.5.8.37.88.23.9.07.95v3.97m0 7.94v7.95m0 7.94v7.93m0 7.94v7.94m0 7.95v7.93m0 7.94v7.94m0 7.94v7.94m0 7.94v7.94m0 7.94v7.94m0 7.94v7.94m0 7.94v7.94m0 7.94v7.94m0 7.94v7.94m0 7.93v7.94m0 7.93v7.94m0 7.94v7.95m0 7.94v7.93m0 7.94v7.94m0 7.95v7.94m0 7.93v7.94m0 7.94v7.95m0 7.93v7.94m0 7.94v7.94m0 7.94v7.94m0 7.94v7.94m0 7.94v7.94m0 7.94v7.94m0 7.94v7.94m0 7.94v7.94m0 7.94v7.93m0 7.94v7.93m0 7.94v7.94m0 7.95v7.94m0 7.93v7.94m0 7.94v7.95m0 7.94v7.93m0 7.94v7.94m0 7.95v7.93m0 7.94v7.94m0 7.94v7.94m0 7.94v7.94m0 7.94v7.94m0 7.94v7.94m0 7.94v7.94m0 7.94v7.94m0 7.94v7.93m0 7.95v7.94m0 7.93v7.94m0 7.94v7.95m0 7.94v7.93m0 7.94v7.94m0 7.95v7.94m0 7.93v7.94m0 7.94v7.95m0 7.93v7.94m0 7.94v7.94m0 7.94v7.94m0 7.94v7.94m0 7.94v7.94m0 7.94v7.94m0 7.94v7.94m0 7.94v7.94m0 7.93v7.95m0 7.94v7.93m0 7.94v7.94m0 7.95v7.94m0 7.93v3.97l-.07.94-.22.9-.35.88-.5.8-.6.72-.72.6-.8.5-.88.37-.9.23-.95.07h-3.98m-7.95 0h-7.96m-7.95 0h-7.95m-7.96 0h-7.95m-7.97 0h-7.96m-7.95 0h-7.96m-7.95 0h-7.95m-7.96 0h-7.96m-7.96 0h-7.96m-7.95 0h-7.96m-7.94 0h-7.96m-7.96 0H1635m-7.97 0h-7.95m-7.96 0h-7.95m-7.96 0h-7.95m-7.95 0h-7.96m-7.95 0h-7.97m-7.96 0h-7.95m-7.96 0h-7.96m-7.95 0h-7.96m-7.96 0h-7.96m-7.96 0h-7.95m-7.96 0h-7.94m-7.96 0h-7.96m-7.95 0h-7.97m-7.95 0h-7.96m-7.96 0h-7.95m-7.95 0h-7.95m-7.96 0h-7.96m-7.95 0h-7.96m-7.95 0h-7.96m-7.96 0h-7.95m-7.96 0h-7.96m-7.96 0h-7.96m-7.95 0H1269m-7.94 0h-7.96m-7.96 0h-7.95m-7.97 0h-7.95m-7.96 0h-7.96m-7.95 0h-7.95m-7.96 0h-7.96m-7.96 0h-7.95m-7.96 0h-7.96m-7.94 0h-7.96m-7.95 0h-7.96m-7.97 0h-7.95m-7.96 0h-7.95m-7.96 0h-7.95m-7.95 0h-7.96m-7.95 0h-7.97m-7.96 0h-7.95m-7.96 0h-7.96m-7.95 0h-7.96m-7.96 0h-7.96m-7.95 0h-7.96m-7.96 0h-7.94m-7.96 0h-7.95m-7.96 0h-7.97m-7.95 0h-7.96m-7.96 0h-7.95m-7.95 0h-7.95m-7.96 0h-7.96m-7.95 0h-7.96m-7.95 0h-7.96m-7.96 0h-7.95m-7.96 0h-7.96m-7.96 0h-7.96m-7.95 0h-7.96m-7.94 0H728m-7.96 0h-7.95m-7.97 0h-7.95m-7.96 0h-7.96m-7.95 0h-7.95m-7.95 0h-7.96m-7.96 0h-7.95m-7.96 0h-7.96m-7.94 0h-7.96m-7.95 0h-7.96m-7.96 0h-7.96m-7.96 0h-7.95m-7.96 0h-7.95m-7.95 0h-7.96m-7.95 0h-7.97m-7.96 0h-7.95m-7.96 0h-7.95m-7.95 0h-7.95m-7.96 0h-7.96m-7.95 0h-7.96m-7.96 0h-7.94m-7.96 0h-7.95m-7.96 0h-7.97m-7.95 0H366l-.94-.07-.9-.22-.88-.35-.8-.5-.72-.6-.6-.72-.5-.8-.37-.88-.23-.9-.07-.95v-3.97m0-7.94v-7.95m0-7.94v-7.93m0-7.94v-7.94m0-7.95v-7.93m0-7.94v-7.94m0-7.94v-7.94m0-7.94v-7.94m0-7.94V2323m0-7.94v-7.94m0-7.94v-7.94m0-7.94v-7.94m0-7.94v-7.93m0-7.95v-7.94m0-7.93v-7.94m0-7.94v-7.95m0-7.94v-7.93m0-7.94v-7.94m0-7.95v-7.94m0-7.93v-7.94m0-7.94v-7.95m0-7.93v-7.94m0-7.94v-7.94m0-7.94v-7.94m0-7.94v-7.94m0-7.94v-7.94m0-7.94v-7.94m0-7.94v-7.94m0-7.94v-7.94m0-7.94v-7.93m0-7.94v-7.93m0-7.94v-7.94m0-7.95v-7.94m0-7.93v-7.94m0-7.94v-7.95m0-7.94v-7.93m0-7.94v-7.94m0-7.95v-7.93m0-7.94v-7.94m0-7.94v-7.94m0-7.94v-7.94m0-7.94V1799m0-7.94v-7.94m0-7.94v-7.94m0-7.94v-7.94m0-7.94v-7.94m0-7.93v-7.94m0-7.93v-7.94m0-7.94v-7.95m0-7.94v-7.93m0-7.94v-7.94m0-7.95v-7.94m0-7.93v-7.94m0-7.94v-7.95m0-7.93v-7.94m0-7.94v-7.94m0-7.94v-7.94m0-7.94v-7.94m0-7.94v-7.94m0-7.94v-7.94m0-7.94v-7.94m0-7.94v-7.94m0-7.94v-7.93m0-7.94v-7.93m0-7.94v-7.94m0-7.95v-7.94m0-7.93V1406l.07-.94.22-.9.35-.88.5-.8.6-.72.72-.6.8-.5.88-.37.9-.23.95-.07h3.98" stroke="#3a414a" stroke-width="2" fill="none"/><path d="M360 1346a6 6 0 0 1 6-6h228a6 6 0 0 1 6 6v48a6 6 0 0 1-6 6H366a6 6 0 0 1-6-6z" fill="none"/><use xlink:href="#y" transform="matrix(1,0,0,1,360,1340) translate(0 34.44444444444444)"/><use xlink:href="#z" transform="matrix(1,0,0,1,360,1340) translate(68.2716049382716 34.44444444444444)"/><path d="M420 1487.6a6 6 0 0 1 6-6h788a6 6 0 0 1 6 6V2364a6 6 0 0 1-6 6H426a6 6 0 0 1-6-6z" fill="#fff"/><path d="M438.06 1481.6h8.04m8.04 0h8.04m8.04 0h8.04m8.05 0h8.05m8.04 0h8.03m8.04 0h8.04m8.05 0h8.04m8.03 0h8.04m8.04 0h8.05m8.05 0h8.04m8.04 0h8.04m8.04 0H623m8.04 0h8.04m8.04 0h8.04m8.04 0h8.04m8.05 0h8.03m8.04 0h8.04m8.05 0h8.04m8.03 0h8.04m8.04 0h8.05m8.04 0h8.03m8.05 0h8.04m8.04 0h8.04m8.04 0h8.04m8.04 0h8.04m8.04 0h8.04m8.04 0h8.04m8.04 0h8.05m8.05 0h8.04m8.03 0h8.04m8.04 0h8.05m8.04 0h8.03m8.04 0h8.04m8.05 0h8.05m8.04 0h8.04m8.04 0h8.04m8.04 0h8.04m8.04 0h8.04m8.04 0h8.04m8.04 0h8.05m8.03 0h8.04m8.04 0h8.05m8.04 0h8.03m8.04 0h8.04m8.05 0h8.04m8.03 0h8.05m8.04 0h8.04m8.04 0h8.04m8.04 0h4.02l.94.08.9.22.88.36.8.5.72.6.6.72.5.8.37.87.23.92.07.94v4m0 7.96v7.97m0 7.96v7.96m0 7.97v7.96m0 7.96v7.97m0 7.97v7.96m0 7.97v7.97m0 7.96v7.97m0 7.97v7.97m0 7.96v7.97m0 7.97v7.96m0 7.97v7.97m0 7.97v7.96m0 7.97v7.97m0 7.96v7.97m0 7.97v7.97m0 7.97v7.97m0 7.97v7.98m0 7.96v7.97m0 7.98v7.96m0 7.97v7.98m0 7.97v7.96m0 7.98v7.97m0 7.96v7.98m0 7.97v7.97m0 7.96v7.97m0 7.97v7.97m0 7.95v7.97m0 7.97v7.95m0 7.97v7.97m0 7.96v7.96m0 7.97v7.96m0 7.97v7.96m0 7.96v7.97m0 7.96v7.96m0 7.97v7.97m0 7.96v7.97m0 7.97v7.96m0 7.97v7.97m0 7.97v7.96m0 7.97v7.97m0 7.97v7.96m0 7.97v7.97m0 7.96v7.97m0 7.97v7.97m0 7.97v7.97m0 7.97v7.97m0 7.97v7.97m0 7.97v7.97m0 7.97v7.98m0 7.96v7.97m0 7.98v7.97m0 7.96v7.98m0 7.97v7.96m0 7.98v7.97m0 7.97v3.98l-.07.94-.22.9-.35.88-.5.8-.6.72-.72.6-.8.5-.88.37-.9.23-.95.07h-4.02m-8.04 0h-8.04m-8.04 0h-8.04m-8.04 0h-8.05m-8.04 0h-8.05m-8.04 0h-8.03m-8.04 0h-8.04m-8.05 0h-8.04m-8.03 0h-8.04m-8.04 0h-8.06m-8.04 0h-8.04m-8.04 0h-8.04m-8.04 0H1017m-8.04 0h-8.04m-8.04 0h-8.04m-8.04 0h-8.04m-8.05 0h-8.03m-8.04 0h-8.04m-8.05 0h-8.04m-8.03 0h-8.04m-8.04 0h-8.05m-8.04 0h-8.03m-8.05 0h-8.04m-8.04 0h-8.04m-8.04 0h-8.04m-8.04 0h-8.04m-8.04 0h-8.04m-8.04 0h-8.04m-8.04 0h-8.05m-8.05 0h-8.04m-8.03 0h-8.04m-8.04 0h-8.05m-8.04 0h-8.03m-8.04 0h-8.04m-8.05 0h-8.05m-8.04 0h-8.04m-8.04 0h-8.04m-8.04 0h-8.04m-8.04 0h-8.04m-8.04 0h-8.04m-8.04 0h-8.05m-8.03 0h-8.04m-8.04 0h-8.05m-8.04 0h-8.03m-8.04 0h-8.04m-8.05 0h-8.04m-8.04 0h-8.04m-8.04 0h-8.04m-8.04 0h-8.04m-8.04 0H426l-.94-.07-.9-.22-.88-.35-.8-.5-.72-.6-.6-.72-.5-.8-.37-.88-.23-.9-.07-.95v-3.98m0-7.97v-7.97m0-7.97v-7.95m0-7.97v-7.97m0-7.95v-7.97m0-7.97v-7.96m0-7.96v-7.97m0-7.96v-7.97m0-7.96v-7.96m0-7.97v-7.96m0-7.96v-7.97m0-7.97v-7.96m0-7.97v-7.97m0-7.96v-7.97m0-7.97v-7.97m0-7.96V2121m0-7.97v-7.96m0-7.97v-7.97m0-7.97v-7.96m0-7.97v-7.97m0-7.97v-7.97m0-7.97v-7.97m0-7.97v-7.97m0-7.97v-7.97m0-7.97v-7.97m0-7.98v-7.96m0-7.97v-7.98m0-7.97v-7.96m0-7.98v-7.97m0-7.96v-7.98m0-7.97v-7.97m0-7.96v-7.97m0-7.97v-7.96m0-7.97v-7.97m0-7.97v-7.95m0-7.97v-7.97m0-7.95v-7.97m0-7.97v-7.96m0-7.96v-7.97m0-7.96v-7.97m0-7.96v-7.96m0-7.97v-7.97m0-7.96v-7.97m0-7.97v-7.96m0-7.97v-7.97m0-7.97v-7.96m0-7.97v-7.97m0-7.96v-7.97m0-7.97v-7.97m0-7.96v-7.97m0-7.97v-7.96m0-7.97v-7.97m0-7.97v-7.97m0-7.97v-7.97m0-7.97v-7.97m0-7.97v-4l.07-.93.22-.92.35-.87.5-.8.6-.7.72-.63.8-.5.88-.35.9-.22.95-.07h4.02" stroke="#3a414a" stroke-width="2" fill="none"/><path d="M420 1456a6 6 0 0 1 6-6h119.76a6 6 0 0 1 6 6v19.6a6 6 0 0 1-6 6H426a6 6 0 0 1-6-6z" fill="none"/><use xlink:href="#A" transform="matrix(1,0,0,1,420.0000000000001,1450.0000000000002) translate(0 20.444444444444443)"/><path d="M480 1537.6a6 6 0 0 1 6-6h668a6 6 0 0 1 6 6V2124a6 6 0 0 1-6 6H486a6 6 0 0 1-6-6z" stroke="#3a414a" stroke-width="2" fill="#fff3d9"/><use xlink:href="#B" transform="matrix(1,0,0,1,492,1543.6071428571431) translate(303.9567901234568 17.77777777777778)"/><path d="M520 1596a6 6 0 0 1 6-6h368a6 6 0 0 1 6 6v102.2a6 6 0 0 1-6 6H526a6 6 0 0 1-6-6z" stroke="#3a414a" stroke-width="2" fill="#c3f7c8"/><use xlink:href="#C" transform="matrix(1,0,0,1,532,1602) translate(8.555555555555543 49.05902777777778)"/><use xlink:href="#D" transform="matrix(1,0,0,1,532,1602) translate(110.77777777777777 49.05902777777778)"/><use xlink:href="#E" transform="matrix(1,0,0,1,532,1602) translate(227.93827160493828 49.05902777777778)"/><use xlink:href="#F" transform="matrix(1,0,0,1,532,1602) translate(289.60493827160496 49.05902777777778)"/><path d="M940 1596a6 6 0 0 1 6-6h168a6 6 0 0 1 6 6v468a6 6 0 0 1-6 6H946a6 6 0 0 1-6-6z" stroke="#3a414a" stroke-width="2" fill="#ffd6f5"/><use xlink:href="#G" transform="matrix(1,0,0,1,952,1602) translate(33 217.27777777777777)"/><use xlink:href="#H" transform="matrix(1,0,0,1,952,1602) translate(45.96296296296296 243.94444444444443)"/><path d="M480 2196a6 6 0 0 1 6-6h668a6 6 0 0 1 6 6v127.2a6 6 0 0 1-6 6H486a6 6 0 0 1-6-6z" stroke="#3a414a" stroke-width="2" fill="#dedeff"/><use xlink:href="#I" transform="matrix(1,0,0,1,492,2202) translate(161.61111111111111 61.27777777777778)"/><use xlink:href="#J" transform="matrix(1,0,0,1,492,2202) translate(245.56172839506172 61.27777777777778)"/><use xlink:href="#K" transform="matrix(1,0,0,1,492,2202) translate(362.53703703703707 61.27777777777778)"/><path d="M1300 797.38V1274a6 6 0 0 1-6 6H716a6 6 0 0 0-6 6v286.62" stroke="#3a414a" fill="none"/><path d="M1300 782.62l4.63 14.26h-9.27zM710 1587.38l-4.63-14.26h9.26z" stroke="#3a414a" fill="#3a414a"/><use xlink:href="#L" transform="matrix(1,0,0,1,908.4577399672975,1254.6666666666665) translate(0 14.222222222222223)"/><use xlink:href="#M" transform="matrix(1,0,0,1,908.4577399672975,1254.6666666666665) translate(40.04938271604939 14.222222222222223)"/><use xlink:href="#N" transform="matrix(1,0,0,1,908.4577399672975,1254.6666666666665) translate(50.8641975308642 14.222222222222223)"/><use xlink:href="#O" transform="matrix(1,0,0,1,908.4577399672975,1254.6666666666665) translate(91.25925925925927 14.222222222222223)"/><path d="M1300 597.38v5.24" stroke="#3a414a" fill="none"/><path d="M1300 582.62l4.63 14.26h-9.27zM1300 617.38l-4.63-14.26h9.27z" stroke="#3a414a" fill="#3a414a"/><path d="M1380 1736a6 6 0 0 1 6-6h348a6 6 0 0 1 6 6v348a6 6 0 0 1-6 6h-348a6 6 0 0 1-6-6z" stroke="#3a414a" stroke-width="2" fill="#dedeff"/><use xlink:href="#P" transform="matrix(1,0,0,1,1392,1742) translate(67.5679012345679 170.02777777777777)"/><use xlink:href="#Q" transform="matrix(1,0,0,1,1392,1742) translate(163.74074074074073 170.02777777777777)"/><use xlink:href="#R" transform="matrix(1,0,0,1,1392,1742) translate(187.1358024691358 170.02777777777777)"/><path d="M1137.38 1830H1194a6 6 0 0 1 6 6v68a6 6 0 0 0 6 6h156.62" stroke="#3a414a" fill="none"/><path d="M1122.62 1830l14.26-4.63v9.27zM1377.38 1910l-14.26 4.63v-9.27z" stroke="#3a414a" fill="#3a414a"/><use xlink:href="#S" transform="matrix(1,0,0,1,1255.1155247850024,1884.6666666666667) translate(0 14.222222222222223)"/><path d="M520 1779.7a6 6 0 0 1 6-6h368a6 6 0 0 1 6 6v102.2a6 6 0 0 1-6 6H526a6 6 0 0 1-6-6z" stroke="#3a414a" stroke-width="2" fill="#b8f5ed"/><use xlink:href="#T" transform="matrix(1,0,0,1,532,1785.7053571428573) translate(125.00617283950618 49.05902777777778)"/><use xlink:href="#U" transform="matrix(1,0,0,1,532,1785.7053571428573) translate(177.96913580246914 49.05902777777778)"/><path d="M520 1956a6 6 0 0 1 6-6h368a6 6 0 0 1 6 6v108a6 6 0 0 1-6 6H526a6 6 0 0 1-6-6z" stroke="#3a414a" stroke-width="2" fill="#b8f5ed"/><g><use xlink:href="#T" transform="matrix(1,0,0,1,532,1962) translate(125.00617283950618 53.77777777777778)"/><use xlink:href="#U" transform="matrix(1,0,0,1,532,1962) translate(177.96913580246914 53.77777777777778)"/></g><path d="M710 1721.58v34.74" stroke="#3a414a" fill="none"/><path d="M710 1706.8l4.63 14.28h-9.26zM710 1771.1l-4.63-14.28h9.26z" stroke="#3a414a" fill="#3a414a"/><path d="M710 1721.58a4.62 4.62 0 0 1-4.62 4.62H506a6 6 0 0 0-6 6V1922a6 6 0 0 0 6 6h199.38a4.62 4.62 0 0 1 4.62 4.62" stroke="#3a414a" fill="none"/><path d="M710 1706.8l4.63 14.28h-9.26zM710 1947.38l-4.63-14.26h9.26z" stroke="#3a414a" fill="#3a414a"/><g><use xlink:href="#V" transform="matrix(1,0,0,1,720.6642051128995,1717.0054287139287) translate(0 14.222222222222223)"/><use xlink:href="#W" transform="matrix(1,0,0,1,720.6642051128995,1717.0054287139287) translate(43.40740740740741 14.222222222222223)"/></g><path d="M917.38 1647.1a2.62 2.62 0 0 1 2.62 2.6v177.68a2.62 2.62 0 0 0 2.62 2.62" stroke="#3a414a" fill="none"/><path d="M902.62 1647.1l14.26-4.64v9.27zM937.38 1830l-14.26 4.63v-9.27z" stroke="#3a414a" fill="#3a414a"/><path d="M917.38 2010a2.62 2.62 0 0 0 2.62-2.62v-174.76a2.62 2.62 0 0 1 2.62-2.62" stroke="#3a414a" fill="none"/><path d="M902.62 2010l14.26-4.63v9.27zM937.38 1830l-14.26 4.63v-9.27z" stroke="#3a414a" fill="#3a414a"/><path d="M917.38 1830.8h5.24" stroke="#3a414a" fill="none"/><path d="M902.62 1830.8l14.26-4.63v9.27zM937.38 1830.8l-14.26 4.64v-9.27z" stroke="#3a414a" fill="#3a414a"/><path d="M820 2172.62v-25.24" stroke="#3a414a" fill="none"/><path d="M820 2187.38l-4.63-14.26h9.26zM820 2132.62l4.63 14.26h-9.26z" stroke="#3a414a" fill="#3a414a"/><g><use xlink:href="#V" transform="matrix(1,0,0,1,832.6352549156242,2155.0220254843002) translate(0 14.222222222222223)"/><use xlink:href="#X" transform="matrix(1,0,0,1,832.6352549156242,2155.0220254843002) translate(43.40740740740741 14.222222222222223)"/></g><defs><path d="M30 0v-248h33v221h125V0H30" id="Y"/><path d="M24-231v-30h32v30H24zM24 0v-190h32V0H24" id="Z"/><path d="M59-47c-2 24 18 29 38 22v24C64 9 27 4 27-40v-127H5v-23h24l9-43h21v43h35v23H59v120" id="aa"/><path d="M24 0v-261h32V0H24" id="ab"/><path d="M100-194c63 0 86 42 84 106H49c0 40 14 67 53 68 26 1 43-12 49-29l28 8c-11 28-37 45-77 45C44 4 14-33 15-96c1-61 26-98 85-98zm52 81c6-60-76-77-97-28-3 7-6 17-6 28h103" id="ac"/><g id="a"><use transform="matrix(0.06172839506172839,0,0,0.06172839506172839,0,0)" xlink:href="#Y"/><use transform="matrix(0.06172839506172839,0,0,0.06172839506172839,12.345679012345679,0)" xlink:href="#Z"/><use transform="matrix(0.06172839506172839,0,0,0.06172839506172839,17.22222222222222,0)" xlink:href="#aa"/><use transform="matrix(0.06172839506172839,0,0,0.06172839506172839,23.39506172839506,0)" xlink:href="#aa"/><use transform="matrix(0.06172839506172839,0,0,0.06172839506172839,29.5679012345679,0)" xlink:href="#ab"/><use transform="matrix(0.06172839506172839,0,0,0.06172839506172839,34.44444444444444,0)" xlink:href="#ac"/></g><path d="M233-177c-1 41-23 64-60 70L243 0h-38l-65-103H63V0H30v-248c88 3 205-21 203 71zM63-129c60-2 137 13 137-47 0-61-80-42-137-45v92" id="ad"/><path d="M85-194c31 0 48 13 60 33l-1-100h32l1 261h-30c-2-10 0-23-3-31C134-8 116 4 85 4 32 4 16-35 15-94c0-66 23-100 70-100zm9 24c-40 0-46 34-46 75 0 40 6 74 45 74 42 0 51-32 51-76 0-42-9-74-50-73" id="ae"/><g id="b"><use transform="matrix(0.06172839506172839,0,0,0.06172839506172839,0,0)" xlink:href="#ad"/><use transform="matrix(0.06172839506172839,0,0,0.06172839506172839,15.987654320987653,0)" xlink:href="#ac"/><use transform="matrix(0.06172839506172839,0,0,0.06172839506172839,28.333333333333332,0)" xlink:href="#ae"/></g><path d="M100-194c62-1 85 37 85 99 1 63-27 99-86 99S16-35 15-95c0-66 28-99 85-99zM99-20c44 1 53-31 53-75 0-43-8-75-51-75s-53 32-53 75 10 74 51 75" id="af"/><path d="M108 0H70L1-190h34L89-25l56-165h34" id="ag"/><path d="M114-163C36-179 61-72 57 0H25l-1-190h30c1 12-1 29 2 39 6-27 23-49 58-41v29" id="ah"/><g id="c"><use transform="matrix(0.06172839506172839,0,0,0.06172839506172839,0,0)" xlink:href="#ad"/><use transform="matrix(0.06172839506172839,0,0,0.06172839506172839,15.987654320987653,0)" xlink:href="#af"/><use transform="matrix(0.06172839506172839,0,0,0.06172839506172839,28.333333333333332,0)" xlink:href="#ag"/><use transform="matrix(0.06172839506172839,0,0,0.06172839506172839,39.44444444444444,0)" xlink:href="#ac"/><use transform="matrix(0.06172839506172839,0,0,0.06172839506172839,51.79012345679012,0)" xlink:href="#ah"/></g><path d="M240 0l2-218c-23 76-54 145-80 218h-23L58-218 59 0H30v-248h44l77 211c21-75 51-140 76-211h43V0h-30" id="ai"/><path d="M96-169c-40 0-48 33-48 73s9 75 48 75c24 0 41-14 43-38l32 2c-6 37-31 61-74 61-59 0-76-41-82-99-10-93 101-131 147-64 4 7 5 14 7 22l-32 3c-4-21-16-35-41-35" id="aj"/><path d="M117-194c89-4 53 116 60 194h-32v-121c0-31-8-49-39-48C34-167 62-67 57 0H25l-1-190h30c1 10-1 24 2 32 11-22 29-35 61-36" id="ak"/><g id="d"><use transform="matrix(0.06172839506172839,0,0,0.06172839506172839,0,0)" xlink:href="#ai"/><use transform="matrix(0.06172839506172839,0,0,0.06172839506172839,18.456790123456788,0)" xlink:href="#Z"/><use transform="matrix(0.06172839506172839,0,0,0.06172839506172839,23.33333333333333,0)" xlink:href="#aj"/><use transform="matrix(0.06172839506172839,0,0,0.06172839506172839,34.44444444444444,0)" xlink:href="#ah"/><use transform="matrix(0.06172839506172839,0,0,0.06172839506172839,41.79012345679012,0)" xlink:href="#af"/><use transform="matrix(0.06172839506172839,0,0,0.06172839506172839,54.1358024691358,0)" xlink:href="#aj"/><use transform="matrix(0.06172839506172839,0,0,0.06172839506172839,65.24691358024691,0)" xlink:href="#af"/><use transform="matrix(0.06172839506172839,0,0,0.06172839506172839,77.5925925925926,0)" xlink:href="#ak"/><use transform="matrix(0.06172839506172839,0,0,0.06172839506172839,89.93827160493828,0)" xlink:href="#aa"/><use transform="matrix(0.06172839506172839,0,0,0.06172839506172839,96.11111111111111,0)" xlink:href="#ah"/><use transform="matrix(0.06172839506172839,0,0,0.06172839506172839,103.4567901234568,0)" xlink:href="#af"/><use transform="matrix(0.06172839506172839,0,0,0.06172839506172839,115.80246913580248,0)" xlink:href="#ab"/><use transform="matrix(0.06172839506172839,0,0,0.06172839506172839,120.67901234567903,0)" xlink:href="#ab"/><use transform="matrix(0.06172839506172839,0,0,0.06172839506172839,125.55555555555557,0)" xlink:href="#ac"/><use transform="matrix(0.06172839506172839,0,0,0.06172839506172839,137.90123456790124,0)" xlink:href="#ah"/></g><path d="M87 75C49 33 22-17 22-94c0-76 28-126 65-167h31c-38 41-64 92-64 168S80 34 118 75H87" id="al"/><path d="M30 0v-248h187v28H63v79h144v27H63v87h162V0H30" id="am"/><path d="M185-189c-5-48-123-54-124 2 14 75 158 14 163 119 3 78-121 87-175 55-17-10-28-26-33-46l33-7c5 56 141 63 141-1 0-78-155-14-162-118-5-82 145-84 179-34 5 7 8 16 11 25" id="an"/><path d="M30-248c87 1 191-15 191 75 0 78-77 80-158 76V0H30v-248zm33 125c57 0 124 11 124-50 0-59-68-47-124-48v98" id="ao"/><path d="M126-127c33 6 58 20 58 59 0 88-139 92-164 29-3-8-5-16-6-25l32-3c6 27 21 44 54 44 32 0 52-15 52-46 0-38-36-46-79-43v-28c39 1 72-4 72-42 0-27-17-43-46-43-28 0-47 15-49 41l-32-3c6-42 35-63 81-64 48-1 79 21 79 65 0 36-21 52-52 59" id="ap"/><path d="M101-251c82-7 93 87 43 132L82-64C71-53 59-42 53-27h129V0H18c2-99 128-94 128-182 0-28-16-43-45-43s-46 15-49 41l-32-3c6-41 34-60 81-64" id="aq"/><g id="e"><use transform="matrix(0.06172839506172839,0,0,0.06172839506172839,0,0)" xlink:href="#al"/><use transform="matrix(0.06172839506172839,0,0,0.06172839506172839,7.345679012345679,0)" xlink:href="#am"/><use transform="matrix(0.06172839506172839,0,0,0.06172839506172839,22.160493827160494,0)" xlink:href="#an"/><use transform="matrix(0.06172839506172839,0,0,0.06172839506172839,36.9753086419753,0)" xlink:href="#ao"/><use transform="matrix(0.06172839506172839,0,0,0.06172839506172839,51.79012345679011,0)" xlink:href="#ap"/><use transform="matrix(0.06172839506172839,0,0,0.06172839506172839,64.1358024691358,0)" xlink:href="#aq"/></g><g id="f"><use transform="matrix(0.06172839506172839,0,0,0.06172839506172839,0,0)" xlink:href="#an"/><use transform="matrix(0.06172839506172839,0,0,0.06172839506172839,14.814814814814813,0)" xlink:href="#ap"/></g><path d="M33-261c38 41 65 92 65 168S71 34 33 75H2C39 34 66-17 66-93S39-220 2-261h31" id="ar"/><g id="g"><use transform="matrix(0.06172839506172839,0,0,0.06172839506172839,0,0)" xlink:href="#ai"/><use transform="matrix(0.06172839506172839,0,0,0.06172839506172839,18.456790123456788,0)" xlink:href="#Z"/><use transform="matrix(0.06172839506172839,0,0,0.06172839506172839,23.33333333333333,0)" xlink:href="#ak"/><use transform="matrix(0.06172839506172839,0,0,0.06172839506172839,35.679012345679006,0)" xlink:href="#Z"/><use transform="matrix(0.06172839506172839,0,0,0.06172839506172839,40.55555555555555,0)" xlink:href="#ar"/></g><path d="M101-234c-31-9-42 10-38 44h38v23H63V0H32v-167H5v-23h27c-7-52 17-82 69-68v24" id="as"/><g id="h"><use transform="matrix(0.06172839506172839,0,0,0.06172839506172839,0,0)" xlink:href="#Y"/><use transform="matrix(0.06172839506172839,0,0,0.06172839506172839,12.345679012345679,0)" xlink:href="#ac"/><use transform="matrix(0.06172839506172839,0,0,0.06172839506172839,24.691358024691358,0)" xlink:href="#as"/><use transform="matrix(0.06172839506172839,0,0,0.06172839506172839,30.864197530864196,0)" xlink:href="#aa"/></g><g id="i"><use transform="matrix(0.06172839506172839,0,0,0.06172839506172839,0,0)" xlink:href="#ai"/><use transform="matrix(0.06172839506172839,0,0,0.06172839506172839,18.456790123456788,0)" xlink:href="#af"/><use transform="matrix(0.06172839506172839,0,0,0.06172839506172839,30.80246913580247,0)" xlink:href="#aa"/><use transform="matrix(0.06172839506172839,0,0,0.06172839506172839,36.97530864197531,0)" xlink:href="#af"/><use transform="matrix(0.06172839506172839,0,0,0.06172839506172839,49.32098765432099,0)" xlink:href="#ah"/></g><path d="M266 0h-40l-56-210L115 0H75L2-248h35L96-30l15-64 43-154h32l59 218 59-218h35" id="at"/><path d="M106-169C34-169 62-67 57 0H25v-261h32l-1 103c12-21 28-36 61-36 89 0 53 116 60 194h-32v-121c2-32-8-49-39-48" id="au"/><g id="j"><use transform="matrix(0.06172839506172839,0,0,0.06172839506172839,0,0)" xlink:href="#at"/><use transform="matrix(0.06172839506172839,0,0,0.06172839506172839,20.925925925925924,0)" xlink:href="#au"/><use transform="matrix(0.06172839506172839,0,0,0.06172839506172839,33.2716049382716,0)" xlink:href="#ac"/><use transform="matrix(0.06172839506172839,0,0,0.06172839506172839,45.61728395061728,0)" xlink:href="#ac"/><use transform="matrix(0.06172839506172839,0,0,0.06172839506172839,57.962962962962955,0)" xlink:href="#ab"/></g><path d="M135-143c-3-34-86-38-87 0 15 53 115 12 119 90S17 21 10-45l28-5c4 36 97 45 98 0-10-56-113-15-118-90-4-57 82-63 122-42 12 7 21 19 24 35" id="av"/><g id="k"><use transform="matrix(0.06172839506172839,0,0,0.06172839506172839,0,0)" xlink:href="#am"/><use transform="matrix(0.06172839506172839,0,0,0.06172839506172839,14.814814814814813,0)" xlink:href="#ak"/><use transform="matrix(0.06172839506172839,0,0,0.06172839506172839,27.160493827160494,0)" xlink:href="#aj"/><use transform="matrix(0.06172839506172839,0,0,0.06172839506172839,38.27160493827161,0)" xlink:href="#af"/><use transform="matrix(0.06172839506172839,0,0,0.06172839506172839,50.617283950617285,0)" xlink:href="#ae"/><use transform="matrix(0.06172839506172839,0,0,0.06172839506172839,62.96296296296296,0)" xlink:href="#ac"/><use transform="matrix(0.06172839506172839,0,0,0.06172839506172839,75.30864197530865,0)" xlink:href="#ah"/><use transform="matrix(0.06172839506172839,0,0,0.06172839506172839,82.65432098765433,0)" xlink:href="#av"/></g><path d="M33 0v-248h34V0H33" id="aw"/><path d="M232-93c-1 65-40 97-104 97C67 4 28-28 28-90v-158h33c8 89-33 224 67 224 102 0 64-133 71-224h33v155" id="ax"/><g id="l"><use transform="matrix(0.06172839506172839,0,0,0.06172839506172839,0,0)" xlink:href="#aw"/><use transform="matrix(0.06172839506172839,0,0,0.06172839506172839,6.172839506172839,0)" xlink:href="#ai"/><use transform="matrix(0.06172839506172839,0,0,0.06172839506172839,24.629629629629626,0)" xlink:href="#ax"/></g><path d="M30-248c118-7 216 8 213 122C240-48 200 0 122 0H30v-248zM63-27c89 8 146-16 146-99s-60-101-146-95v194" id="ay"/><path d="M205 0l-28-72H64L36 0H1l101-248h38L239 0h-34zm-38-99l-47-123c-12 45-31 82-46 123h93" id="az"/><g id="m"><use transform="matrix(0.06172839506172839,0,0,0.06172839506172839,0,0)" xlink:href="#Y"/><use transform="matrix(0.06172839506172839,0,0,0.06172839506172839,12.345679012345679,0)" xlink:href="#Z"/><use transform="matrix(0.06172839506172839,0,0,0.06172839506172839,17.22222222222222,0)" xlink:href="#ay"/><use transform="matrix(0.06172839506172839,0,0,0.06172839506172839,33.20987654320987,0)" xlink:href="#az"/><use transform="matrix(0.06172839506172839,0,0,0.06172839506172839,48.02469135802468,0)" xlink:href="#ad"/></g><path d="M177-190C167-65 218 103 67 71c-23-6-38-20-44-43l32-5c15 47 100 32 89-28v-30C133-14 115 1 83 1 29 1 15-40 15-95c0-56 16-97 71-98 29-1 48 16 59 35 1-10 0-23 2-32h30zM94-22c36 0 50-32 50-73 0-42-14-75-50-75-39 0-46 34-46 75s6 73 46 73" id="aA"/><g id="n"><use transform="matrix(0.06172839506172839,0,0,0.06172839506172839,0,0)" xlink:href="#ad"/><use transform="matrix(0.06172839506172839,0,0,0.06172839506172839,15.987654320987653,0)" xlink:href="#Z"/><use transform="matrix(0.06172839506172839,0,0,0.06172839506172839,20.864197530864196,0)" xlink:href="#aA"/><use transform="matrix(0.06172839506172839,0,0,0.06172839506172839,33.20987654320987,0)" xlink:href="#au"/><use transform="matrix(0.06172839506172839,0,0,0.06172839506172839,45.55555555555555,0)" xlink:href="#aa"/></g><path d="M63-220v92h138v28H63V0H30v-248h175v28H63" id="aB"/><path d="M127-220V0H93v-220H8v-28h204v28h-85" id="aC"/><path d="M140-251c81 0 123 46 123 126C263-46 219 4 140 4 59 4 17-45 17-125s42-126 123-126zm0 227c63 0 89-41 89-101s-29-99-89-99c-61 0-89 39-89 99S79-25 140-24" id="aD"/><g id="o"><use transform="matrix(0.06172839506172839,0,0,0.06172839506172839,0,0)" xlink:href="#aB"/><use transform="matrix(0.06172839506172839,0,0,0.06172839506172839,13.518518518518517,0)" xlink:href="#ah"/><use transform="matrix(0.06172839506172839,0,0,0.06172839506172839,20.864197530864196,0)" xlink:href="#ac"/><use transform="matrix(0.06172839506172839,0,0,0.06172839506172839,33.20987654320987,0)" xlink:href="#ac"/><use transform="matrix(0.06172839506172839,0,0,0.06172839506172839,45.55555555555555,0)" xlink:href="#ad"/><use transform="matrix(0.06172839506172839,0,0,0.06172839506172839,61.1111111111111,0)" xlink:href="#aC"/><use transform="matrix(0.06172839506172839,0,0,0.06172839506172839,74.19753086419752,0)" xlink:href="#aD"/><use transform="matrix(0.06172839506172839,0,0,0.06172839506172839,91.48148148148147,0)" xlink:href="#an"/></g><path d="M210-169c-67 3-38 105-44 169h-31v-121c0-29-5-50-35-48C34-165 62-65 56 0H25l-1-190h30c1 10-1 24 2 32 10-44 99-50 107 0 11-21 27-35 58-36 85-2 47 119 55 194h-31v-121c0-29-5-49-35-48" id="aE"/><path d="M206 0h-36l-40-164L89 0H53L-1-190h32L70-26l43-164h34l41 164 42-164h31" id="aF"/><path d="M141-36C126-15 110 5 73 4 37 3 15-17 15-53c-1-64 63-63 125-63 3-35-9-54-41-54-24 1-41 7-42 31l-33-3c5-37 33-52 76-52 45 0 72 20 72 64v82c-1 20 7 32 28 27v20c-31 9-61-2-59-35zM48-53c0 20 12 33 32 33 41-3 63-29 60-74-43 2-92-5-92 41" id="aG"/><g id="p"><use transform="matrix(0.06172839506172839,0,0,0.06172839506172839,0,0)" xlink:href="#aB"/><use transform="matrix(0.06172839506172839,0,0,0.06172839506172839,13.518518518518517,0)" xlink:href="#Z"/><use transform="matrix(0.06172839506172839,0,0,0.06172839506172839,18.39506172839506,0)" xlink:href="#ah"/><use transform="matrix(0.06172839506172839,0,0,0.06172839506172839,25.74074074074074,0)" xlink:href="#aE"/><use transform="matrix(0.06172839506172839,0,0,0.06172839506172839,44.19753086419753,0)" xlink:href="#aF"/><use transform="matrix(0.06172839506172839,0,0,0.06172839506172839,60.18518518518518,0)" xlink:href="#aG"/><use transform="matrix(0.06172839506172839,0,0,0.06172839506172839,72.53086419753086,0)" xlink:href="#ah"/><use transform="matrix(0.06172839506172839,0,0,0.06172839506172839,79.87654320987654,0)" xlink:href="#ac"/></g><path d="M115-194c55 1 70 41 70 98S169 2 115 4C84 4 66-9 55-30l1 105H24l-1-265h31l2 30c10-21 28-34 59-34zm-8 174c40 0 45-34 45-75s-6-73-45-74c-42 0-51 32-51 76 0 43 10 73 51 73" id="aH"/><g id="q"><use transform="matrix(0.06172839506172839,0,0,0.06172839506172839,0,0)" xlink:href="#ao"/><use transform="matrix(0.06172839506172839,0,0,0.06172839506172839,14.814814814814813,0)" xlink:href="#ac"/><use transform="matrix(0.06172839506172839,0,0,0.06172839506172839,27.160493827160494,0)" xlink:href="#ah"/><use transform="matrix(0.06172839506172839,0,0,0.06172839506172839,34.50617283950617,0)" xlink:href="#Z"/><use transform="matrix(0.06172839506172839,0,0,0.06172839506172839,39.382716049382715,0)" xlink:href="#aH"/><use transform="matrix(0.06172839506172839,0,0,0.06172839506172839,51.72839506172839,0)" xlink:href="#au"/><use transform="matrix(0.06172839506172839,0,0,0.06172839506172839,64.07407407407408,0)" xlink:href="#ac"/><use transform="matrix(0.06172839506172839,0,0,0.06172839506172839,76.41975308641976,0)" xlink:href="#ah"/><use transform="matrix(0.06172839506172839,0,0,0.06172839506172839,83.76543209876544,0)" xlink:href="#aG"/><use transform="matrix(0.06172839506172839,0,0,0.06172839506172839,96.11111111111113,0)" xlink:href="#ab"/></g><g id="r"><use transform="matrix(0.06172839506172839,0,0,0.06172839506172839,0,0)" xlink:href="#ay"/><use transform="matrix(0.06172839506172839,0,0,0.06172839506172839,15.987654320987653,0)" xlink:href="#ah"/><use transform="matrix(0.06172839506172839,0,0,0.06172839506172839,23.333333333333332,0)" xlink:href="#Z"/><use transform="matrix(0.06172839506172839,0,0,0.06172839506172839,28.209876543209873,0)" xlink:href="#ag"/><use transform="matrix(0.06172839506172839,0,0,0.06172839506172839,39.32098765432099,0)" xlink:href="#ac"/><use transform="matrix(0.06172839506172839,0,0,0.06172839506172839,51.666666666666664,0)" xlink:href="#ah"/><use transform="matrix(0.06172839506172839,0,0,0.06172839506172839,59.01234567901234,0)" xlink:href="#av"/></g><path d="M212-179c-10-28-35-45-73-45-59 0-87 40-87 99 0 60 29 101 89 101 43 0 62-24 78-52l27 14C228-24 195 4 139 4 59 4 22-46 18-125c-6-104 99-153 187-111 19 9 31 26 39 46" id="aI"/><g id="s"><use transform="matrix(0.06172839506172839,0,0,0.06172839506172839,0,0)" xlink:href="#aC"/><use transform="matrix(0.06172839506172839,0,0,0.06172839506172839,13.518518518518517,0)" xlink:href="#aI"/><use transform="matrix(0.06172839506172839,0,0,0.06172839506172839,29.50617283950617,0)" xlink:href="#ao"/></g><path d="M143 0L79-87 56-68V0H24v-261h32v163l83-92h37l-77 82L181 0h-38" id="aJ"/><g id="t"><use transform="matrix(0.06172839506172839,0,0,0.06172839506172839,0,0)" xlink:href="#an"/><use transform="matrix(0.06172839506172839,0,0,0.06172839506172839,14.814814814814813,0)" xlink:href="#af"/><use transform="matrix(0.06172839506172839,0,0,0.06172839506172839,27.160493827160494,0)" xlink:href="#aj"/><use transform="matrix(0.06172839506172839,0,0,0.06172839506172839,38.27160493827161,0)" xlink:href="#aJ"/><use transform="matrix(0.06172839506172839,0,0,0.06172839506172839,49.38271604938272,0)" xlink:href="#ac"/><use transform="matrix(0.06172839506172839,0,0,0.06172839506172839,61.7283950617284,0)" xlink:href="#aa"/></g><path fill="#333" d="M67-125c0 54 23 88 75 88 28 0 53-7 68-21v-34h-60v-39h108v91C232-14 192 4 140 4 58 4 20-42 15-125 8-236 126-280 215-234c19 10 29 26 37 47l-47 15c-11-23-29-39-63-39-53 1-75 33-75 86" id="aK"/><path fill="#333" d="M24-248c93 1 206-16 204 79-1 75-69 88-152 82V0H24v-248zm52 121c47 0 100 7 100-41 0-47-54-39-100-39v80" id="aL"/><path fill="#333" d="M24 0v-248h52V0H24" id="aM"/><path fill="#333" d="M140-251c80 0 125 45 125 126S219 4 139 4C58 4 15-44 15-125s44-126 125-126zm-1 214c52 0 73-35 73-88 0-50-21-86-72-86-52 0-73 35-73 86s22 88 72 88" id="aN"/><g id="u"><use transform="matrix(0.04938271604938272,0,0,0.04938271604938272,0,0)" xlink:href="#aK"/><use transform="matrix(0.04938271604938272,0,0,0.04938271604938272,13.827160493827162,0)" xlink:href="#aL"/><use transform="matrix(0.04938271604938272,0,0,0.04938271604938272,25.679012345679016,0)" xlink:href="#aM"/><use transform="matrix(0.04938271604938272,0,0,0.04938271604938272,30.617283950617285,0)" xlink:href="#aN"/></g><path fill="#333" d="M182-182c0 78-84 86-111 141h115V0H12c-6-101 99-100 120-180 1-22-12-31-33-32-23 0-32 14-35 34l-49-3c5-45 32-70 84-70 51 0 83 22 83 69" id="aO"/><path fill="#333" d="M67-125c0 53 21 87 73 88 37 1 54-22 65-47l45 17C233-25 199 4 140 4 58 4 20-42 15-125 8-235 124-281 211-232c18 10 29 29 36 50l-46 12c-8-25-30-41-62-41-52 0-71 34-72 86" id="aP"/><g id="v"><use transform="matrix(0.04938271604938272,0,0,0.04938271604938272,0,0)" xlink:href="#aM"/><use transform="matrix(0.04938271604938272,0,0,0.04938271604938272,4.938271604938272,0)" xlink:href="#aO"/><use transform="matrix(0.04938271604938272,0,0,0.04938271604938272,14.814814814814817,0)" xlink:href="#aP"/></g><path fill="#333" d="M238-95c0 69-44 99-111 99C63 4 22-25 22-93v-155h51v151c-1 38 19 59 55 60 90 1 49-130 58-211h52v153" id="aQ"/><path fill="#333" d="M199 0l-22-63H83L61 0H9l90-248h61L250 0h-51zm-33-102l-36-108c-10 38-24 72-36 108h72" id="aR"/><path fill="#333" d="M240-174c0 40-23 61-54 70L253 0h-59l-57-94H76V0H24v-248c93 4 217-23 216 74zM76-134c48-2 112 12 112-38 0-48-66-32-112-35v73" id="aS"/><path fill="#333" d="M136-208V0H84v-208H4v-40h212v40h-80" id="aT"/><g id="w"><use transform="matrix(0.04938271604938272,0,0,0.04938271604938272,0,0)" xlink:href="#aQ"/><use transform="matrix(0.04938271604938272,0,0,0.04938271604938272,12.790123456790125,0)" xlink:href="#aR"/><use transform="matrix(0.04938271604938272,0,0,0.04938271604938272,25.58024691358025,0)" xlink:href="#aS"/><use transform="matrix(0.04938271604938272,0,0,0.04938271604938272,38.370370370370374,0)" xlink:href="#aT"/></g><path fill="#333" d="M275 0h-61l-44-196L126 0H64L0-248h53L97-49l45-199h58l43 199 44-199h52" id="aU"/><path fill="#333" d="M230 0l2-204L168 0h-37L68-204 70 0H24v-248h70l56 185 57-185h69V0h-46" id="aV"/><g id="x"><use transform="matrix(0.04938271604938272,0,0,0.04938271604938272,0,0)" xlink:href="#aL"/><use transform="matrix(0.04938271604938272,0,0,0.04938271604938272,11.851851851851853,0)" xlink:href="#aU"/><use transform="matrix(0.04938271604938272,0,0,0.04938271604938272,28.592592592592595,0)" xlink:href="#aV"/></g><path d="M47-170H22l-4-78h33" id="aW"/><g id="y"><use transform="matrix(0.06172839506172839,0,0,0.06172839506172839,0,0)" xlink:href="#ax"/><use transform="matrix(0.06172839506172839,0,0,0.06172839506172839,15.987654320987653,0)" xlink:href="#av"/><use transform="matrix(0.06172839506172839,0,0,0.06172839506172839,27.098765432098766,0)" xlink:href="#ac"/><use transform="matrix(0.06172839506172839,0,0,0.06172839506172839,39.44444444444444,0)" xlink:href="#ah"/><use transform="matrix(0.06172839506172839,0,0,0.06172839506172839,46.79012345679012,0)" xlink:href="#aW"/><use transform="matrix(0.06172839506172839,0,0,0.06172839506172839,50.98765432098765,0)" xlink:href="#av"/></g><g id="z"><use transform="matrix(0.06172839506172839,0,0,0.06172839506172839,0,0)" xlink:href="#ao"/><use transform="matrix(0.06172839506172839,0,0,0.06172839506172839,14.814814814814813,0)" xlink:href="#aI"/></g><g id="A"><use transform="matrix(0.06172839506172839,0,0,0.06172839506172839,0,0)" xlink:href="#ay"/><use transform="matrix(0.06172839506172839,0,0,0.06172839506172839,15.987654320987653,0)" xlink:href="#af"/><use transform="matrix(0.06172839506172839,0,0,0.06172839506172839,28.333333333333332,0)" xlink:href="#aj"/><use transform="matrix(0.06172839506172839,0,0,0.06172839506172839,39.44444444444444,0)" xlink:href="#aJ"/><use transform="matrix(0.06172839506172839,0,0,0.06172839506172839,50.55555555555556,0)" xlink:href="#ac"/><use transform="matrix(0.06172839506172839,0,0,0.06172839506172839,62.901234567901234,0)" xlink:href="#ah"/></g><g id="B"><use transform="matrix(0.06172839506172839,0,0,0.06172839506172839,0,0)" xlink:href="#ad"/><use transform="matrix(0.06172839506172839,0,0,0.06172839506172839,15.987654320987653,0)" xlink:href="#aD"/><use transform="matrix(0.06172839506172839,0,0,0.06172839506172839,33.2716049382716,0)" xlink:href="#an"/></g><path d="M197 0v-115H63V0H30v-248h33v105h134v-105h34V0h-34" id="aX"/><g id="C"><use transform="matrix(0.06172839506172839,0,0,0.06172839506172839,0,0)" xlink:href="#aX"/><use transform="matrix(0.06172839506172839,0,0,0.06172839506172839,15.987654320987653,0)" xlink:href="#aG"/><use transform="matrix(0.06172839506172839,0,0,0.06172839506172839,28.333333333333332,0)" xlink:href="#ah"/><use transform="matrix(0.06172839506172839,0,0,0.06172839506172839,35.67901234567901,0)" xlink:href="#ae"/><use transform="matrix(0.06172839506172839,0,0,0.06172839506172839,48.02469135802469,0)" xlink:href="#aF"/><use transform="matrix(0.06172839506172839,0,0,0.06172839506172839,64.01234567901234,0)" xlink:href="#aG"/><use transform="matrix(0.06172839506172839,0,0,0.06172839506172839,76.35802469135803,0)" xlink:href="#ah"/><use transform="matrix(0.06172839506172839,0,0,0.06172839506172839,83.70370370370371,0)" xlink:href="#ac"/></g><path d="M115-194c53 0 69 39 70 98 0 66-23 100-70 100C84 3 66-7 56-30L54 0H23l1-261h32v101c10-23 28-34 59-34zm-8 174c40 0 45-34 45-75 0-40-5-75-45-74-42 0-51 32-51 76 0 43 10 73 51 73" id="aY"/><g id="D"><use transform="matrix(0.06172839506172839,0,0,0.06172839506172839,0,0)" xlink:href="#az"/><use transform="matrix(0.06172839506172839,0,0,0.06172839506172839,14.814814814814813,0)" xlink:href="#aY"/><use transform="matrix(0.06172839506172839,0,0,0.06172839506172839,27.160493827160494,0)" xlink:href="#av"/><use transform="matrix(0.06172839506172839,0,0,0.06172839506172839,38.27160493827161,0)" xlink:href="#aa"/><use transform="matrix(0.06172839506172839,0,0,0.06172839506172839,44.44444444444445,0)" xlink:href="#ah"/><use transform="matrix(0.06172839506172839,0,0,0.06172839506172839,51.79012345679013,0)" xlink:href="#aG"/><use transform="matrix(0.06172839506172839,0,0,0.06172839506172839,64.13580246913581,0)" xlink:href="#aj"/><use transform="matrix(0.06172839506172839,0,0,0.06172839506172839,75.24691358024693,0)" xlink:href="#aa"/><use transform="matrix(0.06172839506172839,0,0,0.06172839506172839,81.41975308641976,0)" xlink:href="#Z"/><use transform="matrix(0.06172839506172839,0,0,0.06172839506172839,86.2962962962963,0)" xlink:href="#af"/><use transform="matrix(0.06172839506172839,0,0,0.06172839506172839,98.64197530864199,0)" xlink:href="#ak"/></g><path d="M179-190L93 31C79 59 56 82 12 73V49c39 6 53-20 64-50L1-190h34L92-34l54-156h33" id="aZ"/><g id="E"><use transform="matrix(0.06172839506172839,0,0,0.06172839506172839,0,0)" xlink:href="#Y"/><use transform="matrix(0.06172839506172839,0,0,0.06172839506172839,12.345679012345679,0)" xlink:href="#aG"/><use transform="matrix(0.06172839506172839,0,0,0.06172839506172839,24.691358024691358,0)" xlink:href="#aZ"/><use transform="matrix(0.06172839506172839,0,0,0.06172839506172839,35.80246913580247,0)" xlink:href="#ac"/><use transform="matrix(0.06172839506172839,0,0,0.06172839506172839,48.148148148148145,0)" xlink:href="#ah"/></g><g id="F"><use transform="matrix(0.06172839506172839,0,0,0.06172839506172839,0,0)" xlink:href="#al"/><use transform="matrix(0.06172839506172839,0,0,0.06172839506172839,7.345679012345679,0)" xlink:href="#aX"/><use transform="matrix(0.06172839506172839,0,0,0.06172839506172839,23.333333333333332,0)" xlink:href="#az"/><use transform="matrix(0.06172839506172839,0,0,0.06172839506172839,38.148148148148145,0)" xlink:href="#Y"/><use transform="matrix(0.06172839506172839,0,0,0.06172839506172839,50.49382716049382,0)" xlink:href="#ar"/></g><path d="M141 0L90-78 38 0H4l68-98-65-92h35l48 74 47-74h35l-64 92 68 98h-35" id="ba"/><g id="G"><use transform="matrix(0.06172839506172839,0,0,0.06172839506172839,0,0)" xlink:href="#aB"/><use transform="matrix(0.06172839506172839,0,0,0.06172839506172839,13.518518518518517,0)" xlink:href="#af"/><use transform="matrix(0.06172839506172839,0,0,0.06172839506172839,25.864197530864196,0)" xlink:href="#ba"/><use transform="matrix(0.06172839506172839,0,0,0.06172839506172839,36.9753086419753,0)" xlink:href="#aA"/><use transform="matrix(0.06172839506172839,0,0,0.06172839506172839,49.32098765432098,0)" xlink:href="#ab"/><use transform="matrix(0.06172839506172839,0,0,0.06172839506172839,54.197530864197525,0)" xlink:href="#af"/><use transform="matrix(0.06172839506172839,0,0,0.06172839506172839,66.5432098765432,0)" xlink:href="#ag"/><use transform="matrix(0.06172839506172839,0,0,0.06172839506172839,77.65432098765432,0)" xlink:href="#ac"/></g><path d="M160-131c35 5 61 23 61 61C221 17 115-2 30 0v-248c76 3 177-17 177 60 0 33-19 50-47 57zm-97-11c50-1 110 9 110-42 0-47-63-36-110-37v79zm0 115c55-2 124 14 124-45 0-56-70-42-124-44v89" id="bb"/><g id="H"><use transform="matrix(0.06172839506172839,0,0,0.06172839506172839,0,0)" xlink:href="#bb"/><use transform="matrix(0.06172839506172839,0,0,0.06172839506172839,14.814814814814813,0)" xlink:href="#ah"/><use transform="matrix(0.06172839506172839,0,0,0.06172839506172839,22.160493827160494,0)" xlink:href="#Z"/><use transform="matrix(0.06172839506172839,0,0,0.06172839506172839,27.037037037037038,0)" xlink:href="#ae"/><use transform="matrix(0.06172839506172839,0,0,0.06172839506172839,39.382716049382715,0)" xlink:href="#aA"/><use transform="matrix(0.06172839506172839,0,0,0.06172839506172839,51.72839506172839,0)" xlink:href="#ac"/></g><path d="M143 4C61 4 22-44 18-125c-5-107 100-154 193-111 17 8 29 25 37 43l-32 9c-13-25-37-40-76-40-61 0-88 39-88 99 0 61 29 100 91 101 35 0 62-11 79-27v-45h-74v-28h105v86C228-13 192 4 143 4" id="bc"/><path d="M9 0v-24l116-142H16v-24h144v24L44-24h123V0H9" id="bd"/><g id="I"><use transform="matrix(0.06172839506172839,0,0,0.06172839506172839,0,0)" xlink:href="#bc"/><use transform="matrix(0.06172839506172839,0,0,0.06172839506172839,17.28395061728395,0)" xlink:href="#aG"/><use transform="matrix(0.06172839506172839,0,0,0.06172839506172839,29.629629629629626,0)" xlink:href="#bd"/><use transform="matrix(0.06172839506172839,0,0,0.06172839506172839,40.74074074074073,0)" xlink:href="#ac"/><use transform="matrix(0.06172839506172839,0,0,0.06172839506172839,53.08641975308641,0)" xlink:href="#aY"/><use transform="matrix(0.06172839506172839,0,0,0.06172839506172839,65.43209876543209,0)" xlink:href="#af"/></g><path d="M84 4C-5 8 30-112 23-190h32v120c0 31 7 50 39 49 72-2 45-101 50-169h31l1 190h-30c-1-10 1-25-2-33-11 22-28 36-60 37" id="be"/><g id="J"><use transform="matrix(0.06172839506172839,0,0,0.06172839506172839,0,0)" xlink:href="#al"/><use transform="matrix(0.06172839506172839,0,0,0.06172839506172839,7.345679012345679,0)" xlink:href="#an"/><use transform="matrix(0.06172839506172839,0,0,0.06172839506172839,22.160493827160494,0)" xlink:href="#Z"/><use transform="matrix(0.06172839506172839,0,0,0.06172839506172839,27.037037037037038,0)" xlink:href="#aE"/><use transform="matrix(0.06172839506172839,0,0,0.06172839506172839,45.49382716049382,0)" xlink:href="#be"/><use transform="matrix(0.06172839506172839,0,0,0.06172839506172839,57.8395061728395,0)" xlink:href="#ab"/><use transform="matrix(0.06172839506172839,0,0,0.06172839506172839,62.716049382716044,0)" xlink:href="#aG"/><use transform="matrix(0.06172839506172839,0,0,0.06172839506172839,75.06172839506172,0)" xlink:href="#aa"/><use transform="matrix(0.06172839506172839,0,0,0.06172839506172839,81.23456790123456,0)" xlink:href="#Z"/><use transform="matrix(0.06172839506172839,0,0,0.06172839506172839,86.1111111111111,0)" xlink:href="#af"/><use transform="matrix(0.06172839506172839,0,0,0.06172839506172839,98.45679012345678,0)" xlink:href="#ak"/></g><g id="K"><use transform="matrix(0.06172839506172839,0,0,0.06172839506172839,0,0)" xlink:href="#am"/><use transform="matrix(0.06172839506172839,0,0,0.06172839506172839,14.814814814814813,0)" xlink:href="#ak"/><use transform="matrix(0.06172839506172839,0,0,0.06172839506172839,27.160493827160494,0)" xlink:href="#ag"/><use transform="matrix(0.06172839506172839,0,0,0.06172839506172839,38.27160493827161,0)" xlink:href="#Z"/><use transform="matrix(0.06172839506172839,0,0,0.06172839506172839,43.14814814814815,0)" xlink:href="#ah"/><use transform="matrix(0.06172839506172839,0,0,0.06172839506172839,50.49382716049383,0)" xlink:href="#af"/><use transform="matrix(0.06172839506172839,0,0,0.06172839506172839,62.839506172839506,0)" xlink:href="#ak"/><use transform="matrix(0.06172839506172839,0,0,0.06172839506172839,75.18518518518519,0)" xlink:href="#aE"/><use transform="matrix(0.06172839506172839,0,0,0.06172839506172839,93.64197530864197,0)" xlink:href="#ac"/><use transform="matrix(0.06172839506172839,0,0,0.06172839506172839,105.98765432098766,0)" xlink:href="#ak"/><use transform="matrix(0.06172839506172839,0,0,0.06172839506172839,118.33333333333334,0)" xlink:href="#aa"/><use transform="matrix(0.06172839506172839,0,0,0.06172839506172839,124.50617283950618,0)" xlink:href="#ar"/></g><g id="L"><use transform="matrix(0.04938271604938272,0,0,0.04938271604938272,0,0)" xlink:href="#aT"/><use transform="matrix(0.04938271604938272,0,0,0.04938271604938272,10.814814814814815,0)" xlink:href="#aP"/><use transform="matrix(0.04938271604938272,0,0,0.04938271604938272,23.60493827160494,0)" xlink:href="#aL"/></g><path fill="#333" d="M14-72v-43h91v43H14" id="bf"/><use transform="matrix(0.04938271604938272,0,0,0.04938271604938272,0,0)" xlink:href="#bf" id="M"/><path fill="#333" d="M110-194c64 0 96 36 96 99 0 64-35 99-97 99-61 0-95-36-95-99 0-62 34-99 96-99zm-1 164c35 0 45-28 45-65 0-40-10-65-43-65-34 0-45 26-45 65 0 36 10 65 43 65" id="bg"/><path fill="#333" d="M135-150c-39-12-60 13-60 57V0H25l-1-190h47c2 13-1 29 3 40 6-28 27-53 61-41v41" id="bh"/><path fill="#333" d="M115-3C79 11 28 4 28-45v-112H4v-33h27l15-45h31v45h36v33H77v99c-1 23 16 31 38 25v30" id="bi"/><g id="N"><use transform="matrix(0.04938271604938272,0,0,0.04938271604938272,0,0)" xlink:href="#aL"/><use transform="matrix(0.04938271604938272,0,0,0.04938271604938272,11.851851851851853,0)" xlink:href="#bg"/><use transform="matrix(0.04938271604938272,0,0,0.04938271604938272,22.666666666666668,0)" xlink:href="#bh"/><use transform="matrix(0.04938271604938272,0,0,0.04938271604938272,29.58024691358025,0)" xlink:href="#bi"/></g><path fill="#333" d="M138-131c27 9 52 24 51 61 0 53-36 74-89 74S11-19 11-69c0-35 22-54 51-61-78-25-46-121 38-121 51 0 83 19 83 66 0 30-18 49-45 54zm-38-16c24 0 32-13 32-36 1-23-11-34-32-34-22 0-33 12-32 34 0 22 9 36 32 36zm1 116c27 0 37-17 37-43 0-25-13-39-39-39-24 0-37 15-37 40 0 27 11 42 39 42" id="bj"/><path fill="#333" d="M101-251c68 0 84 54 84 127C185-50 166 4 99 4S15-52 14-124c-1-75 17-127 87-127zm-1 216c37-5 36-46 36-89s4-89-36-89c-39 0-36 45-36 89 0 43-3 85 36 89" id="bk"/><path fill="#333" d="M23 0v-37h61v-169l-59 37v-38l62-41h46v211h57V0H23" id="bl"/><g id="O"><use transform="matrix(0.04938271604938272,0,0,0.04938271604938272,0,0)" xlink:href="#bj"/><use transform="matrix(0.04938271604938272,0,0,0.04938271604938272,9.876543209876544,0)" xlink:href="#bk"/><use transform="matrix(0.04938271604938272,0,0,0.04938271604938272,19.75308641975309,0)" xlink:href="#bk"/><use transform="matrix(0.04938271604938272,0,0,0.04938271604938272,29.629629629629633,0)" xlink:href="#bl"/></g><g id="P"><use transform="matrix(0.06172839506172839,0,0,0.06172839506172839,0,0)" xlink:href="#aB"/><use transform="matrix(0.06172839506172839,0,0,0.06172839506172839,13.518518518518517,0)" xlink:href="#af"/><use transform="matrix(0.06172839506172839,0,0,0.06172839506172839,25.864197530864196,0)" xlink:href="#ba"/><use transform="matrix(0.06172839506172839,0,0,0.06172839506172839,36.9753086419753,0)" xlink:href="#aA"/><use transform="matrix(0.06172839506172839,0,0,0.06172839506172839,49.32098765432098,0)" xlink:href="#ab"/><use transform="matrix(0.06172839506172839,0,0,0.06172839506172839,54.197530864197525,0)" xlink:href="#af"/><use transform="matrix(0.06172839506172839,0,0,0.06172839506172839,66.5432098765432,0)" xlink:href="#ag"/><use transform="matrix(0.06172839506172839,0,0,0.06172839506172839,77.65432098765432,0)" xlink:href="#ac"/></g><g id="Q"><use transform="matrix(0.06172839506172839,0,0,0.06172839506172839,0,0)" xlink:href="#Z"/><use transform="matrix(0.06172839506172839,0,0,0.06172839506172839,4.876543209876543,0)" xlink:href="#ak"/></g><g id="R"><use transform="matrix(0.06172839506172839,0,0,0.06172839506172839,0,0)" xlink:href="#bb"/><use transform="matrix(0.06172839506172839,0,0,0.06172839506172839,14.814814814814813,0)" xlink:href="#ah"/><use transform="matrix(0.06172839506172839,0,0,0.06172839506172839,22.160493827160494,0)" xlink:href="#af"/><use transform="matrix(0.06172839506172839,0,0,0.06172839506172839,34.50617283950617,0)" xlink:href="#aF"/><use transform="matrix(0.06172839506172839,0,0,0.06172839506172839,50.49382716049382,0)" xlink:href="#av"/><use transform="matrix(0.06172839506172839,0,0,0.06172839506172839,61.60493827160494,0)" xlink:href="#ac"/><use transform="matrix(0.06172839506172839,0,0,0.06172839506172839,73.95061728395062,0)" xlink:href="#ah"/></g><path fill="#333" d="M185-48c-13 30-37 53-82 52C43 2 14-33 14-96s30-98 90-98c62 0 83 45 84 108H66c0 31 8 55 39 56 18 0 30-7 34-22zm-45-69c5-46-57-63-70-21-2 6-4 13-4 21h74" id="bm"/><path fill="#333" d="M135-194c52 0 70 43 70 98 0 56-19 99-73 100-30 1-46-15-58-35L72 0H24l1-261h50v104c11-23 29-37 60-37zM114-30c31 0 40-27 40-66 0-37-7-63-39-63s-41 28-41 65c0 36 8 64 40 64" id="bn"/><path fill="#333" d="M137-138c1-29-70-34-71-4 15 46 118 7 119 86 1 83-164 76-172 9l43-7c4 19 20 25 44 25 33 8 57-30 24-41C81-84 22-81 20-136c-2-80 154-74 161-7" id="bo"/><path fill="#333" d="M190-63c-7 42-38 67-86 67-59 0-84-38-90-98-12-110 154-137 174-36l-49 2c-2-19-15-32-35-32-30 0-35 28-38 64-6 74 65 87 74 30" id="bp"/><path fill="#333" d="M147 0L96-86 75-71V0H25v-261h50v150l67-79h53l-66 74L201 0h-54" id="bq"/><g id="S"><use transform="matrix(0.04938271604938272,0,0,0.04938271604938272,0,0)" xlink:href="#aU"/><use transform="matrix(0.04938271604938272,0,0,0.04938271604938272,16.39506172839506,0)" xlink:href="#bm"/><use transform="matrix(0.04938271604938272,0,0,0.04938271604938272,26.271604938271608,0)" xlink:href="#bn"/><use transform="matrix(0.04938271604938272,0,0,0.04938271604938272,37.08641975308642,0)" xlink:href="#bo"/><use transform="matrix(0.04938271604938272,0,0,0.04938271604938272,46.96296296296296,0)" xlink:href="#bg"/><use transform="matrix(0.04938271604938272,0,0,0.04938271604938272,57.777777777777786,0)" xlink:href="#bp"/><use transform="matrix(0.04938271604938272,0,0,0.04938271604938272,67.65432098765433,0)" xlink:href="#bq"/><use transform="matrix(0.04938271604938272,0,0,0.04938271604938272,77.53086419753087,0)" xlink:href="#bm"/><use transform="matrix(0.04938271604938272,0,0,0.04938271604938272,87.40740740740742,0)" xlink:href="#bi"/></g><g id="T"><use transform="matrix(0.06172839506172839,0,0,0.06172839506172839,0,0)" xlink:href="#ax"/><use transform="matrix(0.06172839506172839,0,0,0.06172839506172839,15.987654320987653,0)" xlink:href="#av"/><use transform="matrix(0.06172839506172839,0,0,0.06172839506172839,27.098765432098766,0)" xlink:href="#ac"/><use transform="matrix(0.06172839506172839,0,0,0.06172839506172839,39.44444444444444,0)" xlink:href="#ah"/></g><path d="M190 0L58-211 59 0H30v-248h39L202-35l-2-213h31V0h-41" id="br"/><g id="U"><use transform="matrix(0.06172839506172839,0,0,0.06172839506172839,0,0)" xlink:href="#br"/><use transform="matrix(0.06172839506172839,0,0,0.06172839506172839,15.987654320987653,0)" xlink:href="#af"/><use transform="matrix(0.06172839506172839,0,0,0.06172839506172839,28.333333333333332,0)" xlink:href="#ae"/><use transform="matrix(0.06172839506172839,0,0,0.06172839506172839,40.67901234567901,0)" xlink:href="#ac"/></g><path fill="#333" d="M169-182c-1-43-94-46-97-3 18 66 151 10 154 114 3 95-165 93-204 36-6-8-10-19-12-30l50-8c3 46 112 56 116 5-17-69-150-10-154-114-4-87 153-88 188-35 5 8 8 18 10 28" id="bs"/><g id="V"><use transform="matrix(0.04938271604938272,0,0,0.04938271604938272,0,0)" xlink:href="#aS"/><use transform="matrix(0.04938271604938272,0,0,0.04938271604938272,12.790123456790125,0)" xlink:href="#aN"/><use transform="matrix(0.04938271604938272,0,0,0.04938271604938272,26.617283950617285,0)" xlink:href="#bs"/></g><path fill="#333" d="M135-194c53 0 70 44 70 98 0 56-19 98-73 100-31 1-45-17-59-34 3 33 2 69 2 105H25l-1-265h48c2 10 0 23 3 31 11-24 29-35 60-35zM114-30c33 0 39-31 40-66 0-38-9-64-40-64-56 0-55 130 0 130" id="bt"/><path fill="#333" d="M25-224v-37h50v37H25zM25 0v-190h50V0H25" id="bu"/><g id="W"><use transform="matrix(0.04938271604938272,0,0,0.04938271604938272,0,0)" xlink:href="#aT"/><use transform="matrix(0.04938271604938272,0,0,0.04938271604938272,9.481481481481481,0)" xlink:href="#bg"/><use transform="matrix(0.04938271604938272,0,0,0.04938271604938272,20.296296296296298,0)" xlink:href="#bt"/><use transform="matrix(0.04938271604938272,0,0,0.04938271604938272,31.111111111111114,0)" xlink:href="#bu"/><use transform="matrix(0.04938271604938272,0,0,0.04938271604938272,36.04938271604939,0)" xlink:href="#bp"/><use transform="matrix(0.04938271604938272,0,0,0.04938271604938272,45.92592592592593,0)" xlink:href="#bo"/></g><path fill="#333" d="M182-130c37 4 62 22 62 59C244 23 116-4 24 0v-248c84 5 203-23 205 63 0 31-19 50-47 55zM76-148c40-3 101 13 101-30 0-44-60-28-101-31v61zm0 110c48-3 116 14 116-37 0-48-69-32-116-35v72" id="bv"/><path fill="#333" d="M88-194c31-1 46 15 58 34l-1-101h50l1 261h-48c-2-10 0-23-3-31C134-8 116 4 84 4 32 4 16-41 15-95c0-56 19-97 73-99zm17 164c33 0 40-30 41-66 1-37-9-64-41-64s-38 30-39 65c0 43 13 65 39 65" id="bw"/><path fill="#333" d="M195-6C206 82 75 100 31 46c-4-6-6-13-8-21l49-6c3 16 16 24 34 25 40 0 42-37 40-79-11 22-30 35-61 35-53 0-70-43-70-97 0-56 18-96 73-97 30 0 46 14 59 34l2-30h47zm-90-29c32 0 41-27 41-63 0-35-9-62-40-62-32 0-39 29-40 63 0 36 9 62 39 62" id="bx"/><g id="X"><use transform="matrix(0.04938271604938272,0,0,0.04938271604938272,0,0)" xlink:href="#bv"/><use transform="matrix(0.04938271604938272,0,0,0.04938271604938272,12.790123456790125,0)" xlink:href="#bh"/><use transform="matrix(0.04938271604938272,0,0,0.04938271604938272,19.703703703703706,0)" xlink:href="#bu"/><use transform="matrix(0.04938271604938272,0,0,0.04938271604938272,24.641975308641978,0)" xlink:href="#bw"/><use transform="matrix(0.04938271604938272,0,0,0.04938271604938272,35.45679012345679,0)" xlink:href="#bx"/><use transform="matrix(0.04938271604938272,0,0,0.04938271604938272,46.27160493827161,0)" xlink:href="#bm"/></g></defs></g></svg>